<svg xmlns="http://www.w3.org/2000/svg" xmlns:xlink="http://www.w3.org/1999/xlink" width="512" zoomAndPan="magnify" viewBox="0 0 384 383.999986" height="512" preserveAspectRatio="xMidYMid meet" version="1.0"><defs><clipPath id="b02c2db9ed"><path d="M 0 74.878906 L 280 74.878906 L 280 308.878906 L 0 308.878906 Z M 0 74.878906 " clip-rule="nonzero"/></clipPath></defs><g clip-path="url(#b02c2db9ed)"><path fill="#000000" d="M 46.796875 74.957031 L 233.839844 74.957031 C 235.34375 74.957031 236.839844 75.03125 238.335938 75.175781 C 239.832031 75.324219 241.3125 75.542969 242.785156 75.835938 C 244.257812 76.128906 245.714844 76.492188 247.152344 76.929688 C 248.589844 77.363281 250 77.867188 251.386719 78.441406 C 252.777344 79.015625 254.132812 79.65625 255.457031 80.363281 C 256.78125 81.074219 258.066406 81.84375 259.316406 82.675781 C 260.566406 83.511719 261.769531 84.402344 262.929688 85.355469 C 264.089844 86.304688 265.203125 87.3125 266.265625 88.371094 C 267.328125 89.433594 268.332031 90.542969 269.285156 91.703125 C 270.238281 92.863281 271.132812 94.066406 271.96875 95.316406 C 272.800781 96.5625 273.574219 97.847656 274.28125 99.171875 C 274.988281 100.492188 275.628906 101.847656 276.203125 103.234375 C 276.777344 104.621094 277.285156 106.03125 277.71875 107.464844 C 278.15625 108.902344 278.519531 110.355469 278.8125 111.828125 C 279.105469 113.296875 279.328125 114.78125 279.472656 116.273438 C 279.621094 117.765625 279.695312 119.261719 279.695312 120.765625 L 279.695312 263.339844 C 279.695312 264.839844 279.621094 266.335938 279.472656 267.828125 C 279.328125 269.324219 279.105469 270.804688 278.8125 272.277344 C 278.519531 273.746094 278.15625 275.203125 277.71875 276.636719 C 277.285156 278.074219 276.777344 279.484375 276.203125 280.871094 C 275.628906 282.253906 274.988281 283.609375 274.28125 284.933594 C 273.574219 286.257812 272.800781 287.542969 271.96875 288.789062 C 271.132812 290.035156 270.238281 291.238281 269.285156 292.398438 C 268.332031 293.558594 267.328125 294.667969 266.265625 295.730469 C 265.203125 296.792969 264.089844 297.796875 262.929688 298.75 C 261.769531 299.699219 260.566406 300.59375 259.316406 301.425781 C 258.066406 302.261719 256.78125 303.03125 255.457031 303.738281 C 254.132812 304.445312 252.777344 305.085938 251.386719 305.660156 C 250 306.234375 248.589844 306.738281 247.152344 307.175781 C 245.714844 307.609375 244.257812 307.972656 242.785156 308.265625 C 241.3125 308.558594 239.832031 308.78125 238.335938 308.925781 C 236.839844 309.074219 235.34375 309.148438 233.839844 309.148438 L 46.796875 309.148438 C 45.296875 309.148438 43.796875 309.074219 42.304688 308.925781 C 40.808594 308.78125 39.324219 308.558594 37.851562 308.265625 C 36.378906 307.972656 34.925781 307.609375 33.488281 307.175781 C 32.050781 306.738281 30.636719 306.234375 29.25 305.660156 C 27.863281 305.085938 26.507812 304.445312 25.183594 303.738281 C 23.859375 303.03125 22.570312 302.261719 21.324219 301.425781 C 20.074219 300.59375 18.871094 299.699219 17.707031 298.75 C 16.546875 297.796875 15.4375 296.792969 14.375 295.730469 C 13.3125 294.667969 12.304688 293.558594 11.351562 292.398438 C 10.398438 291.238281 9.507812 290.035156 8.671875 288.789062 C 7.835938 287.542969 7.066406 286.257812 6.359375 284.933594 C 5.652344 283.609375 5.007812 282.253906 4.433594 280.871094 C 3.859375 279.484375 3.355469 278.074219 2.917969 276.636719 C 2.484375 275.203125 2.117188 273.746094 1.824219 272.277344 C 1.53125 270.804688 1.3125 269.324219 1.164062 267.828125 C 1.019531 266.335938 0.945312 264.839844 0.945312 263.339844 L 0.945312 120.765625 C 0.945312 119.261719 1.019531 117.765625 1.164062 116.273438 C 1.3125 114.78125 1.53125 113.296875 1.824219 111.828125 C 2.117188 110.355469 2.484375 108.902344 2.917969 107.464844 C 3.355469 106.03125 3.859375 104.621094 4.433594 103.234375 C 5.007812 101.847656 5.652344 100.492188 6.359375 99.171875 C 7.066406 97.847656 7.835938 96.5625 8.671875 95.316406 C 9.507812 94.066406 10.398438 92.863281 11.351562 91.703125 C 12.304688 90.542969 13.3125 89.433594 14.375 88.371094 C 15.4375 87.3125 16.546875 86.304688 17.707031 85.355469 C 18.871094 84.402344 20.074219 83.511719 21.324219 82.675781 C 22.570312 81.84375 23.859375 81.074219 25.183594 80.363281 C 26.507812 79.65625 27.863281 79.015625 29.25 78.441406 C 30.636719 77.867188 32.050781 77.363281 33.488281 76.929688 C 34.925781 76.492188 36.378906 76.128906 37.851562 75.835938 C 39.324219 75.542969 40.808594 75.324219 42.304688 75.175781 C 43.796875 75.03125 45.296875 74.957031 46.796875 74.957031 Z M 46.796875 74.957031 " fill-opacity="1" fill-rule="nonzero"/></g><path fill="#000000" d="M 356.539062 90.875 L 302.011719 122.214844 L 302.011719 261.925781 L 356.574219 293.265625 C 371.132812 301.628906 383.09375 294.757812 383.09375 278 L 383.09375 106.21875 C 383.054688 89.386719 371.132812 82.515625 356.539062 90.875 Z M 356.539062 90.875 " fill-opacity="1" fill-rule="nonzero"/></svg>