<svg xmlns="http://www.w3.org/2000/svg" xmlns:xlink="http://www.w3.org/1999/xlink" width="512" zoomAndPan="magnify" viewBox="0 0 384 383.999986" height="512" preserveAspectRatio="xMidYMid meet" version="1.0"><path fill="#000000" d="M 349.441406 112.394531 L 281.894531 112.394531 L 258.277344 68.707031 C 257.625 67.5 256.894531 66.339844 256.085938 65.230469 C 255.277344 64.121094 254.398438 63.070312 253.449219 62.082031 C 252.5 61.089844 251.492188 60.164062 250.417969 59.308594 C 249.34375 58.453125 248.21875 57.671875 247.042969 56.96875 C 245.867188 56.261719 244.648438 55.640625 243.386719 55.097656 C 242.125 54.558594 240.835938 54.101562 239.515625 53.734375 C 238.191406 53.363281 236.851562 53.085938 235.496094 52.898438 C 234.136719 52.707031 232.769531 52.609375 231.398438 52.605469 L 152.984375 52.605469 C 151.589844 52.605469 150.203125 52.703125 148.820312 52.894531 C 147.4375 53.085938 146.074219 53.371094 144.730469 53.75 C 143.386719 54.125 142.078125 54.59375 140.796875 55.148438 C 139.515625 55.707031 138.28125 56.347656 137.089844 57.070312 C 135.894531 57.796875 134.757812 58.597656 133.675781 59.476562 C 132.589844 60.359375 131.574219 61.308594 130.617188 62.324219 C 129.664062 63.34375 128.785156 64.421875 127.976562 65.5625 C 127.171875 66.703125 126.445312 67.890625 125.796875 69.128906 L 103.296875 112.394531 L 88.320312 112.394531 C 88.296875 111.777344 88.210938 111.167969 88.070312 110.566406 C 87.929688 109.96875 87.730469 109.386719 87.480469 108.820312 C 87.226562 108.257812 86.921875 107.726562 86.566406 107.21875 C 86.210938 106.714844 85.808594 106.25 85.363281 105.820312 C 84.917969 105.394531 84.4375 105.011719 83.917969 104.679688 C 83.402344 104.34375 82.855469 104.058594 82.285156 103.832031 C 81.710938 103.601562 81.121094 103.425781 80.515625 103.308594 C 79.910156 103.191406 79.296875 103.132812 78.679688 103.132812 L 73.496094 103.132812 C 73.285156 102.605469 73 102.117188 72.644531 101.675781 C 72.285156 101.230469 71.871094 100.851562 71.398438 100.53125 C 70.925781 100.214844 70.417969 99.972656 69.871094 99.804688 C 69.324219 99.640625 68.769531 99.558594 68.199219 99.5625 L 54.105469 99.5625 C 53.535156 99.5625 52.980469 99.644531 52.433594 99.8125 C 51.890625 99.976562 51.382812 100.21875 50.910156 100.539062 C 50.4375 100.855469 50.023438 101.238281 49.664062 101.679688 C 49.304688 102.121094 49.019531 102.605469 48.804688 103.132812 L 43.777344 103.132812 C 43.160156 103.132812 42.550781 103.191406 41.945312 103.308594 C 41.339844 103.425781 40.75 103.601562 40.179688 103.832031 C 39.609375 104.0625 39.066406 104.34375 38.546875 104.679688 C 38.03125 105.015625 37.550781 105.398438 37.105469 105.824219 C 36.664062 106.253906 36.265625 106.71875 35.910156 107.222656 C 35.558594 107.726562 35.253906 108.261719 35.003906 108.824219 C 34.753906 109.386719 34.558594 109.96875 34.417969 110.570312 C 34.277344 111.171875 34.199219 111.777344 34.175781 112.394531 C 33.050781 112.40625 31.929688 112.476562 30.8125 112.597656 C 29.695312 112.71875 28.589844 112.894531 27.488281 113.125 C 26.386719 113.355469 25.300781 113.636719 24.230469 113.972656 C 23.15625 114.308594 22.101562 114.699219 21.066406 115.136719 C 20.035156 115.574219 19.023438 116.066406 18.035156 116.601562 C 17.046875 117.140625 16.089844 117.722656 15.160156 118.355469 C 14.230469 118.988281 13.332031 119.664062 12.46875 120.382812 C 11.605469 121.101562 10.777344 121.859375 9.984375 122.660156 C 9.195312 123.457031 8.445312 124.296875 7.738281 125.167969 C 7.027344 126.039062 6.363281 126.945312 5.742188 127.882812 C 5.125 128.820312 4.550781 129.789062 4.023438 130.78125 C 3.496094 131.773438 3.019531 132.792969 2.59375 133.832031 C 2.167969 134.871094 1.789062 135.929688 1.46875 137.007812 C 1.144531 138.085938 0.871094 139.175781 0.65625 140.277344 C 0.4375 141.382812 0.273438 142.492188 0.164062 143.613281 C 0.0546875 144.730469 0 145.855469 0 146.976562 L 0 297.144531 C 0 298.277344 0.0546875 299.410156 0.167969 300.535156 C 0.277344 301.664062 0.441406 302.78125 0.664062 303.894531 C 0.886719 305.003906 1.160156 306.101562 1.488281 307.183594 C 1.816406 308.269531 2.199219 309.332031 2.628906 310.378906 C 3.0625 311.425781 3.546875 312.449219 4.082031 313.449219 C 4.613281 314.445312 5.195312 315.417969 5.824219 316.359375 C 6.453125 317.300781 7.125 318.210938 7.84375 319.085938 C 8.5625 319.960938 9.320312 320.800781 10.121094 321.601562 C 10.921875 322.402344 11.761719 323.160156 12.636719 323.878906 C 13.511719 324.597656 14.417969 325.269531 15.359375 325.902344 C 16.300781 326.53125 17.269531 327.113281 18.269531 327.644531 C 19.265625 328.179688 20.289062 328.664062 21.335938 329.097656 C 22.378906 329.53125 23.445312 329.910156 24.527344 330.238281 C 25.609375 330.570312 26.707031 330.84375 27.816406 331.0625 C 28.929688 331.285156 30.046875 331.453125 31.171875 331.5625 C 32.300781 331.671875 33.429688 331.730469 34.558594 331.730469 L 349.441406 331.730469 C 350.570312 331.730469 351.699219 331.671875 352.828125 331.5625 C 353.953125 331.453125 355.070312 331.285156 356.183594 331.0625 C 357.292969 330.84375 358.390625 330.570312 359.472656 330.238281 C 360.554688 329.910156 361.621094 329.53125 362.664062 329.097656 C 363.710938 328.664062 364.734375 328.179688 365.730469 327.644531 C 366.730469 327.113281 367.699219 326.53125 368.640625 325.902344 C 369.582031 325.269531 370.488281 324.597656 371.363281 323.878906 C 372.238281 323.160156 373.078125 322.402344 373.878906 321.601562 C 374.679688 320.800781 375.4375 319.960938 376.15625 319.085938 C 376.875 318.210938 377.546875 317.300781 378.175781 316.359375 C 378.804688 315.417969 379.386719 314.445312 379.917969 313.449219 C 380.453125 312.449219 380.9375 311.425781 381.371094 310.378906 C 381.800781 309.332031 382.183594 308.269531 382.511719 307.183594 C 382.839844 306.101562 383.113281 305.003906 383.335938 303.894531 C 383.558594 302.78125 383.722656 301.664062 383.832031 300.535156 C 383.945312 299.410156 384 298.277344 384 297.144531 L 384 146.785156 C 383.992188 145.65625 383.933594 144.53125 383.816406 143.410156 C 383.699219 142.285156 383.527344 141.171875 383.304688 140.066406 C 383.078125 138.960938 382.800781 137.867188 382.46875 136.789062 C 382.132812 135.710938 381.75 134.652344 381.316406 133.609375 C 380.878906 132.570312 380.394531 131.554688 379.855469 130.558594 C 379.320312 129.566406 378.738281 128.601562 378.109375 127.664062 C 377.480469 126.730469 376.804688 125.824219 376.085938 124.957031 C 375.367188 124.085938 374.609375 123.253906 373.808594 122.457031 C 373.011719 121.660156 372.171875 120.90625 371.300781 120.191406 C 370.425781 119.476562 369.519531 118.808594 368.582031 118.183594 C 367.640625 117.558594 366.675781 116.980469 365.679688 116.449219 C 364.683594 115.921875 363.664062 115.441406 362.621094 115.007812 C 361.578125 114.578125 360.519531 114.199219 359.4375 113.875 C 358.359375 113.546875 357.265625 113.273438 356.160156 113.054688 C 355.050781 112.835938 353.9375 112.671875 352.816406 112.558594 C 351.691406 112.449219 350.566406 112.394531 349.441406 112.394531 Z M 192 304.523438 C 190.464844 304.523438 188.925781 304.488281 187.394531 304.414062 C 185.859375 304.335938 184.324219 304.226562 182.796875 304.074219 C 181.265625 303.925781 179.742188 303.738281 178.222656 303.511719 C 176.703125 303.285156 175.1875 303.023438 173.679688 302.726562 C 172.171875 302.425781 170.675781 302.089844 169.183594 301.714844 C 167.691406 301.34375 166.210938 300.933594 164.742188 300.488281 C 163.269531 300.042969 161.8125 299.5625 160.363281 299.042969 C 158.917969 298.527344 157.484375 297.972656 156.066406 297.386719 C 154.644531 296.796875 153.238281 296.175781 151.851562 295.519531 C 150.460938 294.859375 149.089844 294.171875 147.734375 293.445312 C 146.378906 292.722656 145.042969 291.964844 143.722656 291.175781 C 142.40625 290.382812 141.105469 289.5625 139.828125 288.707031 C 138.550781 287.855469 137.292969 286.96875 136.058594 286.054688 C 134.824219 285.140625 133.613281 284.195312 132.425781 283.21875 C 131.238281 282.242188 130.074219 281.238281 128.933594 280.207031 C 127.796875 279.175781 126.683594 278.117188 125.59375 277.027344 C 124.507812 275.941406 123.449219 274.828125 122.417969 273.691406 C 121.382812 272.550781 120.378906 271.386719 119.40625 270.199219 C 118.429688 269.011719 117.484375 267.796875 116.570312 266.5625 C 115.652344 265.328125 114.769531 264.074219 113.914062 262.792969 C 113.058594 261.515625 112.238281 260.21875 111.445312 258.898438 C 110.65625 257.582031 109.898438 256.242188 109.171875 254.886719 C 108.449219 253.53125 107.757812 252.15625 107.101562 250.769531 C 106.441406 249.378906 105.820312 247.972656 105.230469 246.554688 C 104.644531 245.132812 104.089844 243.699219 103.570312 242.25 C 103.054688 240.804688 102.570312 239.34375 102.125 237.871094 C 101.679688 236.402344 101.269531 234.917969 100.894531 233.425781 C 100.519531 231.9375 100.183594 230.4375 99.882812 228.929688 C 99.582031 227.421875 99.320312 225.90625 99.09375 224.382812 C 98.867188 222.863281 98.679688 221.339844 98.527344 219.808594 C 98.378906 218.277344 98.265625 216.746094 98.1875 215.207031 C 98.113281 213.671875 98.074219 212.136719 98.074219 210.597656 C 98.074219 209.0625 98.109375 207.523438 98.183594 205.988281 C 98.261719 204.453125 98.371094 202.917969 98.523438 201.386719 C 98.671875 199.859375 98.859375 198.332031 99.085938 196.8125 C 99.3125 195.289062 99.574219 193.777344 99.871094 192.265625 C 100.171875 190.757812 100.507812 189.257812 100.882812 187.765625 C 101.253906 186.277344 101.664062 184.792969 102.109375 183.324219 C 102.554688 181.851562 103.035156 180.390625 103.554688 178.941406 C 104.070312 177.496094 104.625 176.0625 105.210938 174.640625 C 105.800781 173.21875 106.421875 171.8125 107.078125 170.421875 C 107.734375 169.035156 108.425781 167.660156 109.148438 166.304688 C 109.875 164.949219 110.628906 163.609375 111.421875 162.289062 C 112.210938 160.972656 113.03125 159.671875 113.886719 158.394531 C 114.738281 157.113281 115.621094 155.859375 116.539062 154.621094 C 117.453125 153.386719 118.398438 152.175781 119.371094 150.988281 C 120.347656 149.796875 121.351562 148.632812 122.382812 147.492188 C 123.414062 146.355469 124.472656 145.242188 125.558594 144.152344 C 126.644531 143.066406 127.757812 142.003906 128.894531 140.972656 C 130.035156 139.941406 131.199219 138.933594 132.386719 137.960938 C 133.574219 136.984375 134.785156 136.039062 136.019531 135.121094 C 137.253906 134.207031 138.507812 133.320312 139.785156 132.464844 C 141.0625 131.609375 142.359375 130.789062 143.679688 129.996094 C 144.996094 129.207031 146.332031 128.449219 147.6875 127.722656 C 149.042969 127 150.414062 126.308594 151.804688 125.648438 C 153.195312 124.992188 154.597656 124.367188 156.015625 123.78125 C 157.4375 123.191406 158.871094 122.636719 160.316406 122.121094 C 161.765625 121.601562 163.222656 121.117188 164.691406 120.671875 C 166.164062 120.226562 167.644531 119.816406 169.132812 119.441406 C 170.625 119.066406 172.125 118.730469 173.628906 118.429688 C 175.136719 118.128906 176.652344 117.867188 178.171875 117.640625 C 179.691406 117.414062 181.214844 117.226562 182.746094 117.074219 C 184.273438 116.925781 185.808594 116.8125 187.339844 116.734375 C 188.875 116.660156 190.410156 116.621094 191.949219 116.621094 C 193.484375 116.621094 195.019531 116.660156 196.554688 116.734375 C 198.089844 116.808594 199.621094 116.921875 201.152344 117.074219 C 202.679688 117.222656 204.207031 117.410156 205.726562 117.636719 C 207.246094 117.863281 208.761719 118.125 210.265625 118.425781 C 211.773438 118.726562 213.273438 119.0625 214.765625 119.433594 C 216.253906 119.808594 217.734375 120.21875 219.207031 120.664062 C 220.675781 121.109375 222.136719 121.59375 223.582031 122.109375 C 225.027344 122.628906 226.460938 123.179688 227.882812 123.769531 C 229.300781 124.359375 230.707031 124.980469 232.09375 125.636719 C 233.484375 126.296875 234.855469 126.988281 236.210938 127.710938 C 237.566406 128.4375 238.90625 129.195312 240.222656 129.984375 C 241.539062 130.773438 242.839844 131.597656 244.117188 132.449219 C 245.394531 133.304688 246.648438 134.191406 247.882812 135.105469 C 249.117188 136.023438 250.328125 136.96875 251.519531 137.941406 C 252.707031 138.917969 253.871094 139.921875 255.007812 140.957031 C 256.148438 141.988281 257.257812 143.046875 258.347656 144.136719 C 259.433594 145.222656 260.492188 146.335938 261.523438 147.476562 C 262.554688 148.613281 263.558594 149.777344 264.535156 150.964844 C 265.507812 152.15625 266.453125 153.367188 267.371094 154.601562 C 268.285156 155.835938 269.171875 157.09375 270.023438 158.371094 C 270.878906 159.652344 271.699219 160.949219 272.488281 162.269531 C 273.28125 163.585938 274.035156 164.925781 274.761719 166.28125 C 275.484375 167.636719 276.175781 169.011719 276.832031 170.398438 C 277.492188 171.789062 278.113281 173.195312 278.703125 174.617188 C 279.289062 176.035156 279.84375 177.472656 280.359375 178.917969 C 280.878906 180.367188 281.359375 181.828125 281.804688 183.296875 C 282.253906 184.769531 282.660156 186.25 283.035156 187.742188 C 283.410156 189.234375 283.746094 190.734375 284.046875 192.242188 C 284.34375 193.75 284.609375 195.265625 284.832031 196.785156 C 285.058594 198.308594 285.246094 199.832031 285.398438 201.363281 C 285.546875 202.894531 285.660156 204.425781 285.738281 205.960938 C 285.8125 207.5 285.847656 209.035156 285.847656 210.574219 C 285.851562 212.109375 285.8125 213.644531 285.738281 215.179688 C 285.660156 216.71875 285.546875 218.25 285.398438 219.777344 C 285.246094 221.308594 285.058594 222.835938 284.832031 224.355469 C 284.609375 225.875 284.347656 227.390625 284.046875 228.898438 C 283.746094 230.40625 283.410156 231.902344 283.039062 233.394531 C 282.664062 234.886719 282.253906 236.367188 281.808594 237.839844 C 281.363281 239.308594 280.882812 240.769531 280.363281 242.214844 C 279.847656 243.664062 279.292969 245.097656 278.707031 246.515625 C 278.117188 247.9375 277.496094 249.34375 276.839844 250.730469 C 276.183594 252.121094 275.492188 253.496094 274.769531 254.851562 C 274.046875 256.207031 273.289062 257.542969 272.5 258.863281 C 271.710938 260.179688 270.886719 261.480469 270.035156 262.757812 C 269.179688 264.035156 268.296875 265.292969 267.382812 266.527344 C 266.46875 267.761719 265.523438 268.972656 264.546875 270.160156 C 263.574219 271.351562 262.570312 272.515625 261.539062 273.652344 C 260.507812 274.792969 259.449219 275.90625 258.363281 276.992188 C 257.277344 278.078125 256.167969 279.140625 255.027344 280.171875 C 253.890625 281.203125 252.726562 282.207031 251.539062 283.183594 C 250.351562 284.160156 249.140625 285.105469 247.910156 286.019531 C 246.675781 286.9375 245.421875 287.824219 244.144531 288.675781 C 242.867188 289.53125 241.570312 290.351562 240.25 291.144531 C 238.933594 291.933594 237.597656 292.691406 236.242188 293.417969 C 234.890625 294.140625 233.515625 294.832031 232.128906 295.492188 C 230.742188 296.148438 229.335938 296.773438 227.917969 297.359375 C 226.5 297.949219 225.066406 298.503906 223.621094 299.019531 C 222.171875 299.539062 220.714844 300.023438 219.246094 300.46875 C 217.777344 300.914062 216.296875 301.324219 214.804688 301.699219 C 213.316406 302.074219 211.816406 302.410156 210.3125 302.710938 C 208.804688 303.011719 207.292969 303.277344 205.773438 303.5 C 204.253906 303.726562 202.730469 303.917969 201.199219 304.066406 C 199.671875 304.21875 198.140625 304.332031 196.605469 304.410156 C 195.070312 304.484375 193.535156 304.523438 192 304.523438 Z M 348.441406 166.460938 C 347.410156 166.460938 346.390625 166.363281 345.382812 166.164062 C 344.371094 165.96875 343.390625 165.671875 342.4375 165.277344 C 341.484375 164.886719 340.582031 164.40625 339.722656 163.832031 C 338.867188 163.261719 338.074219 162.613281 337.34375 161.886719 C 336.613281 161.160156 335.960938 160.367188 335.390625 159.511719 C 334.816406 158.65625 334.332031 157.75 333.9375 156.800781 C 333.539062 155.847656 333.242188 154.867188 333.039062 153.855469 C 332.839844 152.847656 332.738281 151.824219 332.734375 150.796875 C 332.734375 149.765625 332.835938 148.742188 333.035156 147.734375 C 333.234375 146.722656 333.53125 145.742188 333.925781 144.789062 C 334.320312 143.835938 334.800781 142.933594 335.375 142.074219 C 335.945312 141.21875 336.597656 140.425781 337.324219 139.695312 C 338.054688 138.96875 338.84375 138.316406 339.703125 137.746094 C 340.558594 137.171875 341.460938 136.691406 342.414062 136.296875 C 343.363281 135.902344 344.347656 135.605469 345.355469 135.402344 C 346.367188 135.203125 347.386719 135.105469 348.417969 135.105469 C 349.445312 135.105469 350.464844 135.207031 351.476562 135.410156 C 352.484375 135.609375 353.464844 135.910156 354.417969 136.304688 C 355.367188 136.699219 356.269531 137.1875 357.125 137.757812 C 357.980469 138.332031 358.773438 138.984375 359.5 139.714844 C 360.226562 140.445312 360.875 141.238281 361.445312 142.097656 C 362.015625 142.953125 362.496094 143.859375 362.890625 144.8125 C 363.28125 145.765625 363.578125 146.746094 363.777344 147.757812 C 363.976562 148.769531 364.074219 149.789062 364.070312 150.820312 C 364.070312 151.847656 363.96875 152.863281 363.769531 153.871094 C 363.570312 154.878906 363.273438 155.855469 362.878906 156.804688 C 362.488281 157.753906 362.007812 158.65625 361.4375 159.507812 C 360.867188 160.363281 360.21875 161.152344 359.492188 161.878906 C 358.765625 162.605469 357.976562 163.253906 357.125 163.824219 C 356.269531 164.394531 355.371094 164.875 354.421875 165.269531 C 353.472656 165.664062 352.496094 165.960938 351.492188 166.160156 C 350.484375 166.359375 349.46875 166.460938 348.441406 166.460938 Z M 348.441406 166.460938 " fill-opacity="1" fill-rule="nonzero"/><path fill="#000000" d="M 257.433594 210.574219 C 257.433594 211.644531 257.40625 212.714844 257.355469 213.785156 C 257.300781 214.855469 257.222656 215.925781 257.117188 216.992188 C 257.011719 218.058594 256.882812 219.121094 256.726562 220.179688 C 256.566406 221.238281 256.386719 222.296875 256.175781 223.347656 C 255.96875 224.398438 255.734375 225.441406 255.472656 226.484375 C 255.210938 227.523438 254.925781 228.554688 254.617188 229.578125 C 254.304688 230.605469 253.96875 231.621094 253.609375 232.632812 C 253.246094 233.640625 252.863281 234.640625 252.453125 235.628906 C 252.042969 236.621094 251.609375 237.597656 251.152344 238.566406 C 250.695312 239.535156 250.210938 240.492188 249.707031 241.4375 C 249.203125 242.382812 248.675781 243.316406 248.125 244.234375 C 247.574219 245.152344 247 246.058594 246.40625 246.949219 C 245.8125 247.839844 245.195312 248.71875 244.558594 249.578125 C 243.917969 250.4375 243.261719 251.28125 242.582031 252.109375 C 241.902344 252.941406 241.203125 253.75 240.484375 254.542969 C 239.765625 255.339844 239.027344 256.113281 238.269531 256.871094 C 237.511719 257.628906 236.734375 258.367188 235.941406 259.089844 C 235.148438 259.808594 234.339844 260.507812 233.511719 261.1875 C 232.683594 261.867188 231.839844 262.527344 230.980469 263.164062 C 230.117188 263.804688 229.242188 264.417969 228.351562 265.015625 C 227.460938 265.609375 226.558594 266.183594 225.640625 266.734375 C 224.722656 267.285156 223.789062 267.8125 222.84375 268.320312 C 221.902344 268.824219 220.945312 269.304688 219.976562 269.761719 C 219.007812 270.222656 218.03125 270.65625 217.039062 271.066406 C 216.050781 271.476562 215.050781 271.863281 214.042969 272.222656 C 213.035156 272.582031 212.019531 272.917969 210.996094 273.230469 C 209.96875 273.542969 208.9375 273.828125 207.898438 274.085938 C 206.859375 274.347656 205.816406 274.582031 204.765625 274.792969 C 203.714844 275 202.660156 275.183594 201.601562 275.339844 C 200.542969 275.5 199.480469 275.628906 198.414062 275.734375 C 197.347656 275.839844 196.28125 275.917969 195.210938 275.972656 C 194.140625 276.023438 193.070312 276.050781 192 276.050781 C 190.929688 276.050781 189.859375 276.023438 188.789062 275.972656 C 187.71875 275.917969 186.652344 275.839844 185.585938 275.734375 C 184.519531 275.628906 183.457031 275.5 182.398438 275.339844 C 181.339844 275.183594 180.285156 275 179.234375 274.792969 C 178.183594 274.582031 177.140625 274.347656 176.101562 274.085938 C 175.0625 273.828125 174.03125 273.542969 173.003906 273.230469 C 171.980469 272.917969 170.964844 272.582031 169.957031 272.222656 C 168.949219 271.863281 167.949219 271.476562 166.960938 271.066406 C 165.96875 270.65625 164.992188 270.222656 164.023438 269.761719 C 163.054688 269.304688 162.097656 268.824219 161.15625 268.320312 C 160.210938 267.8125 159.277344 267.285156 158.359375 266.734375 C 157.441406 266.183594 156.539062 265.609375 155.648438 265.015625 C 154.757812 264.417969 153.882812 263.804688 153.019531 263.164062 C 152.160156 262.527344 151.316406 261.867188 150.488281 261.1875 C 149.660156 260.507812 148.851562 259.808594 148.058594 259.089844 C 147.265625 258.367188 146.488281 257.628906 145.730469 256.871094 C 144.972656 256.113281 144.234375 255.339844 143.515625 254.542969 C 142.796875 253.75 142.097656 252.941406 141.417969 252.109375 C 140.738281 251.28125 140.082031 250.4375 139.441406 249.578125 C 138.804688 248.71875 138.1875 247.839844 137.59375 246.949219 C 137 246.058594 136.425781 245.152344 135.875 244.234375 C 135.324219 243.316406 134.796875 242.382812 134.292969 241.4375 C 133.789062 240.492188 133.304688 239.535156 132.847656 238.566406 C 132.390625 237.597656 131.957031 236.621094 131.546875 235.628906 C 131.136719 234.640625 130.753906 233.640625 130.390625 232.632812 C 130.03125 231.621094 129.695312 230.605469 129.382812 229.578125 C 129.074219 228.554688 128.789062 227.523438 128.527344 226.484375 C 128.265625 225.441406 128.03125 224.398438 127.824219 223.347656 C 127.613281 222.296875 127.433594 221.242188 127.273438 220.179688 C 127.117188 219.121094 126.988281 218.058594 126.882812 216.992188 C 126.777344 215.925781 126.699219 214.855469 126.644531 213.785156 C 126.59375 212.714844 126.566406 211.644531 126.566406 210.574219 C 126.566406 209.5 126.59375 208.429688 126.644531 207.359375 C 126.699219 206.289062 126.777344 205.222656 126.882812 204.15625 C 126.988281 203.089844 127.117188 202.023438 127.273438 200.964844 C 127.433594 199.90625 127.613281 198.851562 127.824219 197.796875 C 128.03125 196.746094 128.265625 195.703125 128.527344 194.664062 C 128.789062 193.625 129.074219 192.589844 129.382812 191.566406 C 129.695312 190.539062 130.03125 189.523438 130.390625 188.515625 C 130.753906 187.503906 131.136719 186.503906 131.546875 185.515625 C 131.957031 184.527344 132.390625 183.546875 132.847656 182.578125 C 133.304688 181.609375 133.789062 180.652344 134.292969 179.707031 C 134.796875 178.761719 135.324219 177.828125 135.875 176.910156 C 136.425781 175.992188 137 175.085938 137.59375 174.195312 C 138.1875 173.304688 138.804688 172.429688 139.441406 171.566406 C 140.082031 170.707031 140.738281 169.863281 141.417969 169.035156 C 142.097656 168.207031 142.796875 167.394531 143.515625 166.601562 C 144.234375 165.808594 144.972656 165.03125 145.730469 164.273438 C 146.488281 163.515625 147.265625 162.777344 148.058594 162.058594 C 148.851562 161.335938 149.660156 160.636719 150.488281 159.957031 C 151.316406 159.277344 152.160156 158.621094 153.019531 157.980469 C 153.882812 157.34375 154.757812 156.726562 155.648438 156.128906 C 156.539062 155.535156 157.441406 154.960938 158.359375 154.410156 C 159.277344 153.859375 160.210938 153.332031 161.15625 152.828125 C 162.097656 152.320312 163.054688 151.839844 164.023438 151.382812 C 164.992188 150.921875 165.96875 150.488281 166.960938 150.078125 C 167.949219 149.667969 168.949219 149.285156 169.957031 148.921875 C 170.964844 148.5625 171.980469 148.226562 173.003906 147.914062 C 174.03125 147.605469 175.0625 147.316406 176.101562 147.058594 C 177.140625 146.796875 178.183594 146.5625 179.234375 146.351562 C 180.285156 146.144531 181.339844 145.960938 182.398438 145.804688 C 183.457031 145.648438 184.519531 145.515625 185.585938 145.410156 C 186.652344 145.304688 187.71875 145.226562 188.789062 145.175781 C 189.859375 145.121094 190.929688 145.09375 192 145.09375 C 193.070312 145.09375 194.140625 145.121094 195.210938 145.175781 C 196.28125 145.226562 197.347656 145.304688 198.414062 145.410156 C 199.480469 145.515625 200.542969 145.648438 201.601562 145.804688 C 202.660156 145.960938 203.714844 146.144531 204.765625 146.351562 C 205.816406 146.5625 206.859375 146.796875 207.898438 147.058594 C 208.9375 147.316406 209.96875 147.605469 210.996094 147.914062 C 212.019531 148.226562 213.035156 148.5625 214.042969 148.921875 C 215.050781 149.285156 216.050781 149.667969 217.039062 150.078125 C 218.03125 150.488281 219.007812 150.921875 219.976562 151.382812 C 220.945312 151.839844 221.902344 152.320312 222.84375 152.828125 C 223.789062 153.332031 224.722656 153.859375 225.640625 154.410156 C 226.558594 154.960938 227.460938 155.535156 228.351562 156.128906 C 229.242188 156.726562 230.117188 157.34375 230.980469 157.980469 C 231.839844 158.621094 232.683594 159.277344 233.511719 159.957031 C 234.339844 160.636719 235.148438 161.335938 235.941406 162.058594 C 236.734375 162.777344 237.511719 163.515625 238.269531 164.273438 C 239.027344 165.03125 239.765625 165.808594 240.484375 166.601562 C 241.203125 167.394531 241.902344 168.207031 242.582031 169.035156 C 243.261719 169.863281 243.917969 170.707031 244.558594 171.566406 C 245.195312 172.429688 245.8125 173.304688 246.40625 174.195312 C 247 175.085938 247.574219 175.992188 248.125 176.910156 C 248.675781 177.828125 249.203125 178.761719 249.707031 179.707031 C 250.210938 180.652344 250.695312 181.609375 251.152344 182.578125 C 251.609375 183.546875 252.042969 184.527344 252.453125 185.515625 C 252.863281 186.503906 253.246094 187.503906 253.609375 188.515625 C 253.96875 189.523438 254.304688 190.539062 254.617188 191.566406 C 254.925781 192.589844 255.210938 193.625 255.472656 194.664062 C 255.734375 195.703125 255.96875 196.746094 256.175781 197.796875 C 256.386719 198.851562 256.566406 199.90625 256.726562 200.964844 C 256.882812 202.023438 257.011719 203.089844 257.117188 204.15625 C 257.222656 205.222656 257.300781 206.289062 257.355469 207.359375 C 257.40625 208.429688 257.433594 209.5 257.433594 210.574219 Z M 257.433594 210.574219 " fill-opacity="1" fill-rule="nonzero"/></svg>