<svg xmlns="http://www.w3.org/2000/svg" xmlns:xlink="http://www.w3.org/1999/xlink" width="512" zoomAndPan="magnify" viewBox="0 0 384 383.999986" height="512" preserveAspectRatio="xMidYMid meet" version="1.0"><defs><clipPath id="7d13897139"><path d="M 95.28125 50 L 99 50 L 99 68 L 95.28125 68 Z M 95.28125 50 " clip-rule="nonzero"/></clipPath><clipPath id="b61564a22b"><path d="M 95.28125 77 L 99 77 L 99 108 L 95.28125 108 Z M 95.28125 77 " clip-rule="nonzero"/></clipPath><clipPath id="144ceb3936"><path d="M 95.28125 113 L 99 113 L 99 144 L 95.28125 144 Z M 95.28125 113 " clip-rule="nonzero"/></clipPath><clipPath id="2e6721db33"><path d="M 285 88 L 288.78125 88 L 288.78125 135 L 285 135 Z M 285 88 " clip-rule="nonzero"/></clipPath></defs><g clip-path="url(#7d13897139)"><path fill="#000000" d="M 95.375 51.714844 C 95.375 50.886719 96.0625 50.199219 96.890625 50.199219 C 97.714844 50.199219 98.402344 50.886719 98.402344 51.714844 L 98.402344 66.292969 C 98.402344 67.117188 97.714844 67.804688 96.890625 67.804688 C 96.0625 67.804688 95.375 67.117188 95.375 66.292969 Z M 95.375 51.714844 " fill-opacity="1" fill-rule="nonzero"/></g><g clip-path="url(#b61564a22b)"><path fill="#000000" d="M 95.375 79.082031 C 95.375 78.257812 96.0625 77.570312 96.890625 77.570312 C 97.714844 77.570312 98.402344 78.257812 98.402344 79.082031 L 98.402344 106.453125 C 98.402344 107.277344 97.714844 107.964844 96.890625 107.964844 C 96.0625 107.964844 95.375 107.277344 95.375 106.453125 Z M 95.375 79.082031 " fill-opacity="1" fill-rule="nonzero"/></g><g clip-path="url(#144ceb3936)"><path fill="#000000" d="M 95.375 114.566406 C 95.375 113.742188 96.0625 113.054688 96.890625 113.054688 C 97.714844 113.054688 98.402344 113.742188 98.402344 114.566406 L 98.402344 141.800781 C 98.402344 142.625 97.714844 143.449219 96.890625 143.449219 C 96.0625 143.449219 95.375 142.625 95.375 141.800781 Z M 95.375 114.566406 " fill-opacity="1" fill-rule="nonzero"/></g><g clip-path="url(#2e6721db33)"><path fill="#000000" d="M 285.65625 89.535156 C 285.65625 88.710938 286.34375 88.023438 287.171875 88.023438 C 287.996094 88.023438 288.683594 88.710938 288.683594 89.535156 L 288.683594 132.722656 C 288.683594 133.683594 287.996094 134.371094 287.171875 134.371094 C 286.34375 134.371094 285.65625 133.683594 285.65625 132.722656 Z M 285.65625 89.535156 " fill-opacity="1" fill-rule="nonzero"/></g><path fill="#808080" d="M 121.242188 0 L 262.265625 0 C 275.613281 0 286.484375 10.867188 286.484375 24.207031 L 286.484375 359.792969 C 286.484375 373.132812 275.613281 384 262.265625 384 L 121.242188 384 C 107.894531 384 97.027344 373.132812 97.027344 359.792969 L 97.027344 24.207031 C 97.027344 10.867188 107.894531 0 121.242188 0 Z M 126.746094 12.101562 L 256.902344 12.101562 C 267.082031 12.101562 275.476562 20.492188 275.476562 30.671875 L 275.476562 354.292969 C 275.476562 364.46875 267.082031 372.859375 256.902344 372.859375 L 126.746094 372.859375 C 116.425781 372.859375 108.035156 364.46875 108.035156 354.292969 L 108.035156 30.671875 C 108.035156 20.492188 116.425781 12.101562 126.746094 12.101562 Z M 126.746094 12.101562 " fill-opacity="1" fill-rule="evenodd"/><path fill="#000000" d="M 123.304688 2.476562 L 260.203125 2.476562 C 273.136719 2.476562 283.730469 13.066406 283.730469 25.855469 L 283.730469 357.316406 C 283.730469 370.246094 273.136719 380.835938 260.203125 380.835938 L 123.304688 380.835938 C 110.371094 380.835938 99.777344 370.246094 99.777344 357.316406 L 99.777344 25.855469 C 99.777344 13.066406 110.371094 2.476562 123.304688 2.476562 Z M 238.464844 12.101562 C 238.464844 12.515625 238.464844 12.929688 238.464844 13.476562 C 238.464844 19.53125 233.511719 24.480469 227.457031 24.480469 L 155.636719 24.480469 C 149.585938 24.480469 144.632812 19.53125 144.632812 13.476562 C 144.632812 12.929688 144.769531 12.515625 144.769531 12.101562 L 126.746094 12.101562 C 116.425781 12.101562 108.035156 20.492188 108.035156 30.671875 L 108.035156 354.292969 C 108.035156 364.46875 116.425781 372.859375 126.746094 372.859375 L 256.902344 372.859375 C 267.082031 372.859375 275.476562 364.46875 275.476562 354.292969 L 275.476562 30.671875 C 275.476562 20.492188 267.082031 12.101562 256.902344 12.101562 Z M 238.464844 12.101562 " fill-opacity="1" fill-rule="evenodd"/><path fill="#4d4d4d" d="M 215.902344 15.265625 C 215.902344 15.703125 215.816406 16.125 215.648438 16.53125 C 215.480469 16.933594 215.242188 17.292969 214.933594 17.601562 C 214.625 17.910156 214.265625 18.148438 213.863281 18.316406 C 213.457031 18.484375 213.035156 18.566406 212.597656 18.566406 C 212.160156 18.566406 211.738281 18.484375 211.335938 18.316406 C 210.929688 18.148438 210.574219 17.910156 210.265625 17.601562 C 209.953125 17.292969 209.714844 16.933594 209.546875 16.53125 C 209.378906 16.125 209.296875 15.703125 209.296875 15.265625 C 209.296875 14.828125 209.378906 14.40625 209.546875 14.003906 C 209.714844 13.597656 209.953125 13.242188 210.265625 12.933594 C 210.574219 12.621094 210.929688 12.382812 211.335938 12.21875 C 211.738281 12.050781 212.160156 11.964844 212.597656 11.964844 C 213.035156 11.964844 213.457031 12.050781 213.863281 12.21875 C 214.265625 12.382812 214.625 12.621094 214.933594 12.933594 C 215.242188 13.242188 215.480469 13.597656 215.648438 14.003906 C 215.816406 14.40625 215.902344 14.828125 215.902344 15.265625 Z M 215.902344 15.265625 " fill-opacity="1" fill-rule="nonzero"/><path fill="#4d4d4d" d="M 191.371094 14.167969 C 192.125 14.167969 192.875 14.175781 193.617188 14.191406 C 194.359375 14.210938 195.078125 14.234375 195.777344 14.269531 C 196.476562 14.304688 197.140625 14.347656 197.769531 14.398438 C 198.398438 14.449219 198.976562 14.503906 199.511719 14.570312 C 200.046875 14.632812 200.523438 14.703125 200.945312 14.777344 C 201.363281 14.851562 201.71875 14.929688 202.007812 15.015625 C 202.296875 15.097656 202.515625 15.183594 202.664062 15.273438 C 202.8125 15.359375 202.886719 15.449219 202.886719 15.539062 C 202.886719 15.632812 202.8125 15.71875 202.664062 15.808594 C 202.515625 15.898438 202.296875 15.984375 202.007812 16.066406 C 201.71875 16.152344 201.363281 16.230469 200.945312 16.304688 C 200.523438 16.378906 200.046875 16.449219 199.511719 16.511719 C 198.976562 16.578125 198.398438 16.632812 197.769531 16.683594 C 197.140625 16.734375 196.476562 16.777344 195.777344 16.8125 C 195.078125 16.84375 194.359375 16.871094 193.617188 16.890625 C 192.875 16.90625 192.125 16.914062 191.371094 16.914062 C 190.613281 16.914062 189.863281 16.90625 189.125 16.890625 C 188.382812 16.871094 187.660156 16.84375 186.960938 16.8125 C 186.265625 16.777344 185.601562 16.734375 184.972656 16.683594 C 184.34375 16.632812 183.761719 16.578125 183.226562 16.511719 C 182.691406 16.449219 182.214844 16.378906 181.792969 16.304688 C 181.375 16.230469 181.019531 16.152344 180.730469 16.066406 C 180.441406 15.984375 180.222656 15.898438 180.074219 15.808594 C 179.925781 15.71875 179.855469 15.632812 179.855469 15.539062 C 179.855469 15.449219 179.925781 15.359375 180.074219 15.273438 C 180.222656 15.183594 180.441406 15.097656 180.730469 15.015625 C 181.019531 14.929688 181.375 14.851562 181.792969 14.777344 C 182.214844 14.703125 182.691406 14.632812 183.226562 14.570312 C 183.761719 14.503906 184.34375 14.449219 184.972656 14.398438 C 185.601562 14.347656 186.265625 14.304688 186.960938 14.269531 C 187.660156 14.234375 188.382812 14.210938 189.125 14.191406 C 189.863281 14.175781 190.613281 14.167969 191.371094 14.167969 Z M 191.371094 14.167969 " fill-opacity="1" fill-rule="evenodd"/></svg>