<svg xmlns="http://www.w3.org/2000/svg" xmlns:xlink="http://www.w3.org/1999/xlink" width="512" zoomAndPan="magnify" viewBox="0 0 384 383.999986" height="512" preserveAspectRatio="xMidYMid meet" version="1.0"><path fill="#000000" d="M 286.917969 0 L 258.53125 0 L 298.097656 69.246094 L 379.886719 69.246094 C 367.890625 29.246094 330.777344 0 286.917969 0 Z M 264.394531 239.570312 C 264.394531 232.820312 260.792969 226.585938 254.949219 223.21875 L 160.527344 168.695312 C 154.691406 165.320312 147.484375 165.308594 141.640625 168.695312 C 135.800781 172.0625 132.195312 178.296875 132.195312 185.046875 L 132.195312 294.085938 C 132.195312 300.835938 135.800781 307.070312 141.640625 310.441406 C 144.558594 312.128906 147.824219 312.972656 151.082031 312.972656 C 154.339844 312.972656 157.605469 312.128906 160.527344 310.441406 L 254.949219 255.921875 C 260.792969 252.554688 264.394531 246.320312 264.394531 239.570312 Z M 384 286.917969 C 384 340.453125 340.453125 384 286.917969 384 L 97.082031 384 C 43.550781 384 0 340.453125 0 286.917969 L 0 107.015625 L 384 107.015625 Z M 215.417969 0 L 125.804688 0 L 165.371094 69.246094 L 254.601562 69.246094 L 216.789062 3.074219 C 216.21875 2.078125 215.789062 1.042969 215.417969 0 Z M 83.1875 1.113281 C 83.46875 1.769531 83.699219 2.4375 84.0625 3.074219 L 121.875 69.246094 L 4.113281 69.246094 C 14.816406 33.5625 45.542969 6.542969 83.1875 1.113281 " fill-opacity="1" fill-rule="nonzero"/></svg>