<svg xmlns="http://www.w3.org/2000/svg" xmlns:xlink="http://www.w3.org/1999/xlink" width="512" zoomAndPan="magnify" viewBox="0 0 384 383.999986" height="512" preserveAspectRatio="xMidYMid meet" version="1.0"><defs><clipPath id="c8cfa65735"><path d="M 10 46.558594 L 275 46.558594 L 275 265 L 10 265 Z M 10 46.558594 " clip-rule="nonzero"/></clipPath><clipPath id="5307cf6ed5"><path d="M 0 333 L 286 333 L 286 337.558594 L 0 337.558594 Z M 0 333 " clip-rule="nonzero"/></clipPath><clipPath id="6a94a5572c"><path d="M 290 46.558594 L 384 46.558594 L 384 336 L 290 336 Z M 290 46.558594 " clip-rule="nonzero"/></clipPath></defs><g clip-path="url(#c8cfa65735)"><path fill="#232122" d="M 19.164062 231.59375 L 122.636719 231.59375 L 122.636719 251.570312 L 108.21875 251.570312 C 101.203125 251.570312 95.511719 257.265625 95.511719 264.285156 L 189.835938 264.285156 C 189.835938 257.265625 184.144531 251.570312 177.128906 251.570312 L 162.710938 251.570312 L 162.710938 231.59375 L 266.183594 231.59375 C 270.929688 231.59375 274.769531 227.753906 274.769531 223.003906 L 274.769531 55.226562 C 274.769531 50.476562 270.929688 46.632812 266.183594 46.632812 L 19.164062 46.632812 C 14.417969 46.632812 10.578125 50.476562 10.578125 55.226562 L 10.578125 223.003906 C 10.578125 227.71875 14.417969 231.59375 19.164062 231.59375 Z M 243.628906 220.804688 C 242.757812 220.804688 242.09375 220.105469 242.09375 219.265625 C 242.09375 218.429688 242.792969 217.730469 243.628906 217.730469 C 244.46875 217.730469 245.167969 218.429688 245.167969 219.265625 C 245.167969 220.105469 244.503906 220.804688 243.628906 220.804688 Z M 253.265625 222.339844 C 251.554688 222.339844 250.160156 220.941406 250.160156 219.230469 C 250.160156 217.519531 251.554688 216.121094 253.265625 216.121094 C 254.976562 216.121094 256.371094 217.519531 256.371094 219.230469 C 256.371094 220.941406 254.976562 222.339844 253.265625 222.339844 Z M 142.707031 48.484375 C 143.722656 48.484375 144.523438 49.289062 144.523438 50.300781 C 144.523438 51.3125 143.722656 52.117188 142.707031 52.117188 C 141.695312 52.117188 140.894531 51.3125 140.894531 50.300781 C 140.894531 49.289062 141.695312 48.484375 142.707031 48.484375 Z M 18.152344 58.125 C 18.152344 55.925781 19.933594 54.179688 22.097656 54.179688 L 263.285156 54.179688 C 265.484375 54.179688 267.230469 55.957031 267.230469 58.125 L 267.230469 204.808594 C 267.230469 207.007812 265.449219 208.753906 263.285156 208.753906 L 22.097656 208.753906 C 19.898438 208.753906 18.152344 206.972656 18.152344 204.808594 Z M 18.152344 58.125 " fill-opacity="1" fill-rule="nonzero"/></g><path fill="#232122" d="M 27.859375 273.785156 L 0 331.058594 L 285.382812 331.058594 L 257.523438 273.785156 Z M 10.578125 325.714844 L 33.234375 279.09375 L 252.113281 279.09375 L 274.769531 325.714844 Z M 10.578125 325.714844 " fill-opacity="1" fill-rule="nonzero"/><path fill="#232122" d="M 54.109375 281.464844 L 42.308594 281.464844 L 39.691406 286.84375 L 51.492188 286.84375 Z M 54.109375 281.464844 " fill-opacity="1" fill-rule="nonzero"/><path fill="#232122" d="M 49.640625 290.582031 L 37.875 290.582031 L 35.222656 295.960938 L 47.023438 295.960938 Z M 49.640625 290.582031 " fill-opacity="1" fill-rule="nonzero"/><path fill="#232122" d="M 33.40625 299.730469 L 30.789062 305.109375 L 42.554688 305.109375 L 45.207031 299.730469 Z M 33.40625 299.730469 " fill-opacity="1" fill-rule="nonzero"/><path fill="#232122" d="M 26.320312 314.226562 L 38.121094 314.226562 L 40.738281 308.847656 L 28.941406 308.847656 Z M 26.320312 314.226562 " fill-opacity="1" fill-rule="nonzero"/><path fill="#232122" d="M 21.886719 323.375 L 33.652344 323.375 L 36.269531 317.996094 L 24.507812 317.996094 Z M 21.886719 323.375 " fill-opacity="1" fill-rule="nonzero"/><path fill="#232122" d="M 72.960938 281.464844 L 61.195312 281.464844 L 59.136719 286.84375 L 70.898438 286.84375 Z M 72.960938 281.464844 " fill-opacity="1" fill-rule="nonzero"/><path fill="#232122" d="M 69.46875 290.582031 L 57.703125 290.582031 L 55.644531 295.960938 L 67.445312 295.960938 Z M 69.46875 290.582031 " fill-opacity="1" fill-rule="nonzero"/><path fill="#232122" d="M 54.214844 299.730469 L 52.152344 305.109375 L 63.953125 305.109375 L 66.011719 299.730469 Z M 54.214844 299.730469 " fill-opacity="1" fill-rule="nonzero"/><path fill="#232122" d="M 48.664062 314.226562 L 60.460938 314.226562 L 62.523438 308.847656 L 50.722656 308.847656 Z M 48.664062 314.226562 " fill-opacity="1" fill-rule="nonzero"/><path fill="#232122" d="M 45.207031 323.375 L 56.972656 323.375 L 59.03125 317.996094 L 47.230469 317.996094 Z M 45.207031 323.375 " fill-opacity="1" fill-rule="nonzero"/><path fill="#232122" d="M 91.320312 281.464844 L 79.558594 281.464844 L 77.8125 286.84375 L 89.578125 286.84375 Z M 91.320312 281.464844 " fill-opacity="1" fill-rule="nonzero"/><path fill="#232122" d="M 88.355469 290.582031 L 76.589844 290.582031 L 74.84375 295.960938 L 86.609375 295.960938 Z M 88.355469 290.582031 " fill-opacity="1" fill-rule="nonzero"/><path fill="#232122" d="M 83.675781 305.109375 L 85.421875 299.730469 L 73.625 299.730469 L 71.878906 305.109375 Z M 83.675781 305.109375 " fill-opacity="1" fill-rule="nonzero"/><path fill="#232122" d="M 68.910156 314.226562 L 80.710938 314.226562 L 82.457031 308.847656 L 70.65625 308.847656 Z M 68.910156 314.226562 " fill-opacity="1" fill-rule="nonzero"/><path fill="#232122" d="M 110.976562 281.464844 L 99.175781 281.464844 L 97.746094 286.84375 L 109.511719 286.84375 Z M 110.976562 281.464844 " fill-opacity="1" fill-rule="nonzero"/><path fill="#232122" d="M 108.496094 290.582031 L 96.734375 290.582031 L 95.265625 295.960938 L 107.066406 295.960938 Z M 108.496094 290.582031 " fill-opacity="1" fill-rule="nonzero"/><path fill="#232122" d="M 106.054688 299.730469 L 94.253906 299.730469 L 92.824219 305.109375 L 104.585938 305.109375 Z M 106.054688 299.730469 " fill-opacity="1" fill-rule="nonzero"/><path fill="#232122" d="M 102.109375 314.226562 L 103.574219 308.847656 L 91.777344 308.847656 L 90.34375 314.226562 Z M 102.109375 314.226562 " fill-opacity="1" fill-rule="nonzero"/><path fill="#232122" d="M 129.652344 281.464844 L 117.851562 281.464844 L 117.363281 286.84375 L 129.128906 286.84375 Z M 129.652344 281.464844 " fill-opacity="1" fill-rule="nonzero"/><path fill="#232122" d="M 128.78125 290.582031 L 116.980469 290.582031 L 116.492188 295.960938 L 128.257812 295.960938 Z M 128.78125 290.582031 " fill-opacity="1" fill-rule="nonzero"/><path fill="#232122" d="M 127.90625 299.730469 L 116.109375 299.730469 L 115.617188 305.109375 L 127.382812 305.109375 Z M 127.90625 299.730469 " fill-opacity="1" fill-rule="nonzero"/><path fill="#232122" d="M 127.035156 308.847656 L 115.234375 308.847656 L 114.746094 314.226562 L 126.511719 314.226562 Z M 127.035156 308.847656 " fill-opacity="1" fill-rule="nonzero"/><path fill="#232122" d="M 136.808594 281.464844 L 148.609375 281.464844 L 148.609375 286.84375 L 136.808594 286.84375 Z M 136.808594 281.464844 " fill-opacity="1" fill-rule="nonzero"/><path fill="#232122" d="M 136.808594 290.582031 L 148.609375 290.582031 L 148.609375 295.960938 L 136.808594 295.960938 Z M 136.808594 290.582031 " fill-opacity="1" fill-rule="nonzero"/><path fill="#232122" d="M 136.808594 299.730469 L 148.609375 299.730469 L 148.609375 305.109375 L 136.808594 305.109375 Z M 136.808594 299.730469 " fill-opacity="1" fill-rule="nonzero"/><path fill="#232122" d="M 136.808594 308.847656 L 148.609375 308.847656 L 148.609375 314.226562 L 136.808594 314.226562 Z M 136.808594 308.847656 " fill-opacity="1" fill-rule="nonzero"/><path fill="#232122" d="M 245.828125 286.84375 L 243.210938 281.464844 L 231.414062 281.464844 L 234.03125 286.84375 Z M 245.828125 286.84375 " fill-opacity="1" fill-rule="nonzero"/><path fill="#232122" d="M 238.5 295.960938 L 250.261719 295.960938 L 247.644531 290.582031 L 235.878906 290.582031 Z M 238.5 295.960938 " fill-opacity="1" fill-rule="nonzero"/><path fill="#232122" d="M 240.3125 299.730469 L 242.933594 305.109375 L 254.730469 305.109375 L 252.113281 299.730469 Z M 240.3125 299.730469 " fill-opacity="1" fill-rule="nonzero"/><path fill="#232122" d="M 247.402344 314.226562 L 259.199219 314.226562 L 256.582031 308.847656 L 244.78125 308.847656 Z M 247.402344 314.226562 " fill-opacity="1" fill-rule="nonzero"/><path fill="#232122" d="M 251.867188 323.375 L 263.632812 323.375 L 261.015625 317.996094 L 249.25 317.996094 Z M 251.867188 323.375 " fill-opacity="1" fill-rule="nonzero"/><path fill="#232122" d="M 226.386719 286.84375 L 224.324219 281.464844 L 212.5625 281.464844 L 214.585938 286.84375 Z M 226.386719 286.84375 " fill-opacity="1" fill-rule="nonzero"/><path fill="#232122" d="M 218.078125 295.960938 L 229.875 295.960938 L 227.816406 290.582031 L 216.015625 290.582031 Z M 218.078125 295.960938 " fill-opacity="1" fill-rule="nonzero"/><path fill="#232122" d="M 231.308594 299.730469 L 219.507812 299.730469 L 221.566406 305.109375 L 233.367188 305.109375 Z M 231.308594 299.730469 " fill-opacity="1" fill-rule="nonzero"/><path fill="#232122" d="M 234.796875 308.847656 L 223 308.847656 L 225.058594 314.226562 L 236.824219 314.226562 Z M 234.796875 308.847656 " fill-opacity="1" fill-rule="nonzero"/><path fill="#232122" d="M 226.488281 317.996094 L 228.550781 323.375 L 240.3125 323.375 L 238.289062 317.996094 Z M 226.488281 317.996094 " fill-opacity="1" fill-rule="nonzero"/><path fill="#232122" d="M 207.710938 286.84375 L 205.964844 281.464844 L 194.199219 281.464844 L 195.910156 286.84375 Z M 207.710938 286.84375 " fill-opacity="1" fill-rule="nonzero"/><path fill="#232122" d="M 198.878906 295.960938 L 210.675781 295.960938 L 208.929688 290.582031 L 197.132812 290.582031 Z M 198.878906 295.960938 " fill-opacity="1" fill-rule="nonzero"/><path fill="#232122" d="M 201.84375 305.109375 L 213.644531 305.109375 L 211.898438 299.730469 L 200.097656 299.730469 Z M 201.84375 305.109375 " fill-opacity="1" fill-rule="nonzero"/><path fill="#232122" d="M 203.066406 308.847656 L 204.8125 314.226562 L 216.609375 314.226562 L 214.867188 308.847656 Z M 203.066406 308.847656 " fill-opacity="1" fill-rule="nonzero"/><path fill="#232122" d="M 217.484375 317.996094 L 67.6875 317.996094 L 65.941406 323.375 L 219.542969 323.375 L 217.796875 317.996094 Z M 217.484375 317.996094 " fill-opacity="1" fill-rule="nonzero"/><path fill="#232122" d="M 187.777344 286.84375 L 186.308594 281.464844 L 174.546875 281.464844 L 175.976562 286.84375 Z M 187.777344 286.84375 " fill-opacity="1" fill-rule="nonzero"/><path fill="#232122" d="M 178.457031 295.960938 L 190.253906 295.960938 L 188.789062 290.582031 L 176.988281 290.582031 Z M 178.457031 295.960938 " fill-opacity="1" fill-rule="nonzero"/><path fill="#232122" d="M 180.933594 305.109375 L 192.699219 305.109375 L 191.265625 299.730469 L 179.46875 299.730469 Z M 180.933594 305.109375 " fill-opacity="1" fill-rule="nonzero"/><path fill="#232122" d="M 183.378906 314.226562 L 195.175781 314.226562 L 193.710938 308.847656 L 181.945312 308.847656 Z M 183.378906 314.226562 " fill-opacity="1" fill-rule="nonzero"/><path fill="#232122" d="M 168.15625 286.84375 L 167.632812 281.464844 L 155.867188 281.464844 L 156.359375 286.84375 Z M 168.15625 286.84375 " fill-opacity="1" fill-rule="nonzero"/><path fill="#232122" d="M 157.265625 295.960938 L 169.03125 295.960938 L 168.507812 290.582031 L 156.742188 290.582031 Z M 157.265625 295.960938 " fill-opacity="1" fill-rule="nonzero"/><path fill="#232122" d="M 158.136719 305.109375 L 169.902344 305.109375 L 169.378906 299.730469 L 157.613281 299.730469 Z M 158.136719 305.109375 " fill-opacity="1" fill-rule="nonzero"/><path fill="#232122" d="M 159.011719 314.226562 L 170.773438 314.226562 L 170.285156 308.847656 L 158.488281 308.847656 Z M 159.011719 314.226562 " fill-opacity="1" fill-rule="nonzero"/><g clip-path="url(#5307cf6ed5)"><path fill="#232122" d="M 0 333.328125 L 285.382812 333.328125 L 285.382812 337.519531 L 0 337.519531 Z M 0 333.328125 " fill-opacity="1" fill-rule="nonzero"/></g><g clip-path="url(#6a94a5572c)"><path fill="#232122" d="M 376.914062 46.597656 L 297.949219 46.597656 C 294.039062 46.597656 290.863281 49.777344 290.863281 53.6875 L 290.863281 328.300781 C 290.863281 332.210938 294.039062 335.390625 297.949219 335.390625 L 376.914062 335.390625 C 380.824219 335.390625 384 332.210938 384 328.300781 L 384 53.722656 C 384 49.777344 380.824219 46.597656 376.914062 46.597656 Z M 337.429688 306.753906 C 335.09375 306.753906 333.171875 304.832031 333.171875 302.492188 C 333.171875 300.152344 335.09375 298.230469 337.429688 298.230469 C 339.769531 298.230469 341.691406 300.152344 341.691406 302.492188 C 341.691406 304.832031 339.769531 306.753906 337.429688 306.753906 Z M 337.429688 283.839844 C 332.71875 283.839844 328.914062 280.035156 328.914062 275.320312 C 328.914062 270.605469 332.71875 266.796875 337.429688 266.796875 C 342.144531 266.796875 345.949219 270.605469 345.949219 275.320312 C 345.949219 280.035156 342.109375 283.839844 337.429688 283.839844 Z M 371.398438 176.972656 L 303.464844 176.972656 C 301.335938 176.972656 299.589844 175.226562 299.589844 173.097656 C 299.589844 170.964844 301.335938 169.21875 303.464844 169.21875 L 371.398438 169.21875 C 373.527344 169.21875 375.273438 170.964844 375.273438 173.097656 C 375.273438 175.226562 373.527344 176.972656 371.398438 176.972656 Z M 371.398438 163.210938 L 303.464844 163.210938 C 301.335938 163.210938 299.589844 161.464844 299.589844 159.335938 C 299.589844 157.207031 301.335938 155.460938 303.464844 155.460938 L 371.398438 155.460938 C 373.527344 155.460938 375.273438 157.207031 375.273438 159.335938 C 375.273438 161.464844 373.527344 163.210938 371.398438 163.210938 Z M 371.398438 149.453125 L 303.464844 149.453125 C 301.335938 149.453125 299.589844 147.707031 299.589844 145.574219 C 299.589844 143.445312 301.335938 141.699219 303.464844 141.699219 L 371.398438 141.699219 C 373.527344 141.699219 375.273438 143.445312 375.273438 145.574219 C 375.273438 147.707031 373.527344 149.453125 371.398438 149.453125 Z M 371.398438 135.726562 L 303.464844 135.726562 C 301.335938 135.726562 299.589844 133.980469 299.589844 131.851562 C 299.589844 129.71875 301.335938 127.972656 303.464844 127.972656 L 371.398438 127.972656 C 373.527344 127.972656 375.273438 129.71875 375.273438 131.851562 C 375.273438 133.980469 373.527344 135.726562 371.398438 135.726562 Z M 373.316406 80.265625 L 301.511719 80.265625 C 300.425781 80.265625 299.554688 79.394531 299.554688 78.3125 C 299.554688 77.226562 300.425781 76.355469 301.511719 76.355469 L 373.316406 76.355469 C 374.398438 76.355469 375.273438 77.226562 375.273438 78.3125 C 375.273438 79.394531 374.398438 80.265625 373.316406 80.265625 Z M 373.316406 68.882812 L 301.511719 68.882812 C 300.425781 68.882812 299.554688 68.007812 299.554688 66.925781 C 299.554688 65.84375 300.425781 64.96875 301.511719 64.96875 L 373.316406 64.96875 C 374.398438 64.96875 375.273438 65.84375 375.273438 66.925781 C 375.273438 68.007812 374.398438 68.882812 373.316406 68.882812 Z M 373.316406 68.882812 " fill-opacity="1" fill-rule="nonzero"/></g></svg>