<svg xmlns="http://www.w3.org/2000/svg" xmlns:xlink="http://www.w3.org/1999/xlink" width="512" zoomAndPan="magnify" viewBox="0 0 384 383.999986" height="512" preserveAspectRatio="xMidYMid meet" version="1.0"><path fill="#000000" d="M 362.769531 170.769531 L 213.230469 170.769531 L 213.230469 21.230469 C 213.230469 9.480469 203.75 0 192 0 C 180.25 0 170.769531 9.480469 170.769531 21.230469 L 170.769531 170.769531 L 21.230469 170.769531 C 9.480469 170.769531 0 180.25 0 192 C 0 203.75 9.480469 213.230469 21.230469 213.230469 L 170.769531 213.230469 L 170.769531 362.769531 C 170.769531 374.519531 180.25 384 192 384 C 203.75 384 213.230469 374.519531 213.230469 362.769531 L 213.230469 213.230469 L 362.769531 213.230469 C 374.519531 213.230469 384 203.75 384 192 C 384 180.25 374.519531 170.769531 362.769531 170.769531 Z M 362.769531 170.769531 " fill-opacity="1" fill-rule="nonzero"/></svg>