<svg xmlns="http://www.w3.org/2000/svg" xmlns:xlink="http://www.w3.org/1999/xlink" width="512" zoomAndPan="magnify" viewBox="0 0 384 383.999986" height="512" preserveAspectRatio="xMidYMid meet" version="1.0"><defs><clipPath id="53d5c2e2d1"><path d="M 59.28125 151 L 322 151 L 322 384 L 59.28125 384 Z M 59.28125 151 " clip-rule="nonzero"/></clipPath></defs><path fill="#000000" d="M 263.429688 136.746094 C 263.429688 156.378906 263.703125 176.011719 263.429688 195.644531 C 263.277344 197.925781 263.019531 200.195312 262.652344 202.453125 C 262.289062 204.707031 261.820312 206.945312 261.246094 209.15625 C 260.667969 211.371094 259.992188 213.550781 259.210938 215.699219 C 258.429688 217.847656 257.550781 219.957031 256.570312 222.023438 C 255.59375 224.089844 254.519531 226.105469 253.351562 228.070312 C 252.183594 230.035156 250.921875 231.941406 249.574219 233.789062 C 248.226562 235.632812 246.796875 237.414062 245.28125 239.125 C 243.765625 240.839844 242.171875 242.476562 240.503906 244.039062 C 238.832031 245.601562 237.09375 247.082031 235.285156 248.480469 C 233.476562 249.878906 231.605469 251.1875 229.671875 252.410156 C 227.738281 253.632812 225.753906 254.761719 223.714844 255.800781 C 221.675781 256.835938 219.59375 257.773438 217.464844 258.613281 C 215.339844 259.453125 213.175781 260.191406 210.980469 260.828125 C 208.785156 261.464844 206.5625 261.996094 204.316406 262.421875 C 202.070312 262.851562 199.808594 263.171875 197.53125 263.386719 C 195.253906 263.601562 192.972656 263.707031 190.6875 263.707031 C 188.398438 263.707031 186.117188 263.601562 183.839844 263.386719 C 181.5625 263.171875 179.300781 262.851562 177.054688 262.421875 C 174.808594 261.996094 172.585938 261.464844 170.390625 260.828125 C 168.195312 260.191406 166.03125 259.453125 163.90625 258.613281 C 161.777344 257.773438 159.695312 256.835938 157.65625 255.800781 C 155.617188 254.761719 153.632812 253.632812 151.699219 252.410156 C 149.765625 251.1875 147.898438 249.878906 146.085938 248.480469 C 144.277344 247.082031 142.539062 245.601562 140.871094 244.039062 C 139.199219 242.476562 137.605469 240.839844 136.089844 239.125 C 134.574219 237.414062 133.144531 235.632812 131.796875 233.789062 C 130.449219 231.941406 129.191406 230.035156 128.019531 228.070312 C 126.851562 226.105469 125.777344 224.089844 124.800781 222.023438 C 123.820312 219.957031 122.941406 217.847656 122.160156 215.699219 C 121.378906 213.550781 120.703125 211.371094 120.128906 209.15625 C 119.550781 206.945312 119.082031 204.707031 118.71875 202.453125 C 118.351562 200.195312 118.09375 197.925781 117.945312 195.644531 C 117.546875 156.167969 117.546875 116.582031 117.945312 76.890625 C 117.992188 74.984375 118.117188 73.082031 118.316406 71.183594 C 118.515625 69.289062 118.785156 67.402344 119.132812 65.523438 C 119.480469 63.648438 119.898438 61.789062 120.390625 59.945312 C 120.886719 58.105469 121.449219 56.285156 122.085938 54.484375 C 122.722656 52.6875 123.425781 50.914062 124.203125 49.171875 C 124.976562 47.429688 125.820312 45.71875 126.726562 44.042969 C 127.636719 42.363281 128.609375 40.726562 129.648438 39.125 C 130.6875 37.523438 131.785156 35.964844 132.945312 34.453125 C 134.105469 32.9375 135.324219 31.472656 136.597656 30.050781 C 137.875 28.632812 139.203125 27.265625 140.585938 25.953125 C 141.96875 24.636719 143.402344 23.378906 144.882812 22.175781 C 146.363281 20.976562 147.890625 19.832031 149.460938 18.75 C 151.035156 17.667969 152.644531 16.648438 154.296875 15.695312 C 155.949219 14.738281 157.632812 13.847656 159.355469 13.027344 C 161.078125 12.203125 162.828125 11.449219 164.609375 10.761719 C 166.390625 10.074219 168.195312 9.460938 170.023438 8.917969 C 171.851562 8.371094 173.699219 7.902344 175.5625 7.5 C 177.429688 7.101562 179.308594 6.777344 181.199219 6.523438 C 183.089844 6.273438 184.988281 6.097656 186.894531 5.992188 C 188.800781 5.890625 190.707031 5.863281 192.613281 5.910156 C 194.523438 5.957031 196.425781 6.078125 198.324219 6.273438 C 200.222656 6.472656 202.109375 6.742188 203.984375 7.085938 C 205.863281 7.429688 207.722656 7.847656 209.566406 8.339844 C 211.410156 8.828125 213.230469 9.390625 215.03125 10.023438 C 216.832031 10.65625 218.605469 11.359375 220.347656 12.132812 C 222.09375 12.90625 223.804688 13.746094 225.484375 14.652344 C 227.160156 15.558594 228.800781 16.53125 230.40625 17.566406 C 232.007812 18.601562 233.566406 19.699219 235.082031 20.859375 C 236.597656 22.015625 238.066406 23.230469 239.488281 24.503906 C 240.910156 25.777344 242.277344 27.105469 243.59375 28.488281 C 244.910156 29.867188 246.171875 31.296875 247.375 32.777344 C 248.578125 34.257812 249.722656 35.78125 250.808594 37.351562 C 252.863281 40.292969 254.679688 43.375 256.261719 46.59375 C 257.847656 49.8125 259.175781 53.132812 260.25 56.554688 C 261.324219 59.980469 262.132812 63.464844 262.671875 67.011719 C 263.210938 70.558594 263.480469 74.125 263.472656 77.710938 C 263.472656 97.480469 263.429688 117.113281 263.429688 136.746094 Z M 263.429688 136.746094 " fill-opacity="1" fill-rule="nonzero"/><g clip-path="url(#53d5c2e2d1)"><path fill="#000000" d="M 205.699219 324.601562 L 205.699219 353.296875 C 208.085938 353.683594 210.484375 353.941406 212.898438 354.074219 C 227.570312 354.074219 242.195312 354.074219 256.867188 354.074219 C 259.929688 353.984375 262.96875 354.226562 265.980469 354.800781 C 266.851562 354.949219 267.703125 355.175781 268.535156 355.476562 C 269.367188 355.78125 270.164062 356.15625 270.929688 356.601562 C 271.691406 357.046875 272.410156 357.5625 273.078125 358.136719 C 273.75 358.714844 274.363281 359.347656 274.917969 360.039062 C 275.472656 360.726562 275.960938 361.457031 276.386719 362.234375 C 276.808594 363.011719 277.15625 363.820312 277.433594 364.664062 C 277.707031 365.503906 277.90625 366.363281 278.027344 367.238281 C 278.144531 368.113281 278.183594 368.996094 278.144531 369.878906 C 278.0625 370.75 277.90625 371.609375 277.675781 372.453125 C 277.441406 373.296875 277.140625 374.113281 276.769531 374.90625 C 276.394531 375.699219 275.957031 376.453125 275.453125 377.167969 C 274.949219 377.882812 274.386719 378.550781 273.769531 379.167969 C 273.148438 379.789062 272.484375 380.347656 271.765625 380.851562 C 271.050781 381.355469 270.296875 381.792969 269.503906 382.167969 C 268.710938 382.539062 267.894531 382.84375 267.050781 383.074219 C 266.207031 383.304688 265.347656 383.460938 264.476562 383.542969 C 262.289062 383.679688 260.101562 383.679688 257.914062 383.542969 C 213.171875 383.542969 168.277344 383.542969 123.230469 383.542969 C 120.738281 383.75 118.246094 383.75 115.757812 383.542969 C 114.941406 383.398438 114.144531 383.183594 113.363281 382.90625 C 112.582031 382.628906 111.828125 382.289062 111.105469 381.886719 C 110.378906 381.484375 109.691406 381.027344 109.042969 380.511719 C 108.394531 379.996094 107.789062 379.433594 107.234375 378.820312 C 106.679688 378.207031 106.175781 377.550781 105.726562 376.855469 C 105.277344 376.15625 104.886719 375.429688 104.558594 374.667969 C 104.230469 373.910156 103.964844 373.128906 103.765625 372.324219 C 103.5625 371.519531 103.429688 370.703125 103.363281 369.878906 C 103.316406 369.019531 103.34375 368.167969 103.445312 367.3125 C 103.550781 366.460938 103.730469 365.625 103.980469 364.804688 C 104.234375 363.980469 104.558594 363.191406 104.953125 362.425781 C 105.347656 361.664062 105.804688 360.941406 106.328125 360.257812 C 106.847656 359.578125 107.429688 358.945312 108.0625 358.367188 C 108.695312 357.789062 109.378906 357.269531 110.105469 356.8125 C 110.832031 356.355469 111.59375 355.964844 112.390625 355.640625 C 113.1875 355.320312 114.003906 355.070312 114.84375 354.890625 C 117.851562 354.261719 120.886719 353.988281 123.957031 354.074219 C 137.628906 354.074219 151.296875 354.074219 164.964844 354.074219 L 174.808594 354.074219 L 174.808594 325.148438 C 166.46875 323.050781 158.175781 321.640625 150.292969 318.90625 C 103.910156 302.871094 74.75 270.53125 62.71875 222.746094 C 61.183594 216.367188 60.332031 209.902344 60.167969 203.34375 C 59.667969 190.859375 59.621094 178.378906 59.851562 165.898438 C 59.835938 164.949219 59.914062 164.003906 60.082031 163.070312 C 60.253906 162.132812 60.515625 161.222656 60.867188 160.339844 C 61.214844 159.453125 61.648438 158.613281 62.164062 157.8125 C 62.679688 157.015625 63.269531 156.273438 63.933594 155.589844 C 64.59375 154.90625 65.316406 154.292969 66.101562 153.753906 C 66.882812 153.210938 67.710938 152.753906 68.582031 152.375 C 69.457031 151.996094 70.359375 151.707031 71.289062 151.507812 C 72.21875 151.308594 73.160156 151.199219 74.109375 151.1875 C 75.0625 151.171875 76.007812 151.25 76.941406 151.417969 C 77.878906 151.589844 78.789062 151.851562 79.671875 152.203125 C 80.558594 152.550781 81.398438 152.984375 82.199219 153.5 C 83 154.015625 83.738281 154.605469 84.421875 155.265625 C 85.105469 155.929688 85.71875 156.652344 86.261719 157.433594 C 86.800781 158.214844 87.261719 159.042969 87.636719 159.917969 C 88.015625 160.789062 88.304688 161.691406 88.503906 162.621094 C 88.707031 163.550781 88.8125 164.492188 88.828125 165.445312 C 89.375 176.011719 88.828125 186.625 89.148438 197.328125 C 90.105469 235.546875 108.464844 263.5625 140.496094 283.058594 C 142.929688 284.453125 145.417969 285.742188 147.960938 286.925781 C 150.503906 288.113281 153.089844 289.191406 155.722656 290.164062 C 158.351562 291.132812 161.019531 291.992188 163.722656 292.742188 C 166.425781 293.488281 169.15625 294.125 171.914062 294.644531 C 174.667969 295.164062 177.441406 295.570312 180.230469 295.859375 C 183.023438 296.148438 185.820312 296.324219 188.625 296.378906 C 191.429688 296.4375 194.230469 296.375 197.03125 296.199219 C 199.828125 296.023438 202.617188 295.726562 205.390625 295.320312 C 208.167969 294.910156 210.917969 294.386719 213.652344 293.746094 C 216.382812 293.105469 219.082031 292.355469 221.75 291.492188 C 224.417969 290.628906 227.046875 289.652344 229.632812 288.570312 C 232.222656 287.488281 234.757812 286.296875 237.246094 285.003906 C 239.734375 283.710938 242.167969 282.3125 244.539062 280.816406 C 246.910156 279.320312 249.214844 277.726562 251.453125 276.035156 C 253.691406 274.347656 255.859375 272.566406 257.949219 270.699219 C 260.039062 268.828125 262.046875 266.875 263.976562 264.835938 C 266.195312 262.589844 268.304688 260.238281 270.296875 257.785156 C 272.289062 255.332031 274.160156 252.785156 275.90625 250.152344 C 277.648438 247.515625 279.265625 244.804688 280.746094 242.011719 C 282.226562 239.21875 283.570312 236.363281 284.773438 233.441406 C 285.980469 230.519531 287.039062 227.546875 287.953125 224.519531 C 288.871094 221.496094 289.636719 218.433594 290.253906 215.332031 C 290.871094 212.234375 291.335938 209.113281 291.652344 205.96875 C 291.964844 202.824219 292.125 199.671875 292.132812 196.507812 C 292.132812 187.808594 292.132812 179.0625 292.132812 170.316406 C 292.046875 167.824219 292.214844 165.351562 292.632812 162.890625 C 292.796875 162.054688 293.035156 161.238281 293.34375 160.441406 C 293.652344 159.644531 294.027344 158.882812 294.472656 158.152344 C 294.917969 157.425781 295.421875 156.738281 295.988281 156.101562 C 296.550781 155.460938 297.167969 154.875 297.839844 154.34375 C 298.507812 153.8125 299.21875 153.347656 299.972656 152.941406 C 300.722656 152.539062 301.503906 152.203125 302.316406 151.9375 C 303.128906 151.671875 303.957031 151.480469 304.804688 151.359375 C 305.648438 151.242188 306.5 151.199219 307.351562 151.230469 C 308.210938 151.230469 309.066406 151.308594 309.910156 151.46875 C 310.757812 151.625 311.578125 151.863281 312.378906 152.175781 C 313.179688 152.492188 313.945312 152.878906 314.671875 153.335938 C 315.402344 153.796875 316.078125 154.320312 316.707031 154.90625 C 317.335938 155.492188 317.90625 156.132812 318.414062 156.828125 C 318.921875 157.523438 319.359375 158.257812 319.730469 159.035156 C 320.097656 159.8125 320.390625 160.617188 320.609375 161.449219 C 320.824219 162.28125 320.964844 163.128906 321.019531 163.984375 C 324.621094 212.179688 316.964844 256.683594 278.78125 291.164062 C 274.082031 295.5 269.085938 299.460938 263.796875 303.050781 C 258.507812 306.640625 252.980469 309.820312 247.214844 312.585938 C 241.453125 315.355469 235.515625 317.679688 229.402344 319.5625 C 223.292969 321.445312 217.078125 322.867188 210.757812 323.828125 C 209.433594 323.871094 207.933594 324.328125 205.699219 324.601562 Z M 205.699219 324.601562 " fill-opacity="1" fill-rule="nonzero"/></g></svg>